<svg xmlns="http://www.w3.org/2000/svg" xmlns:xlink="http://www.w3.org/1999/xlink" width="500" zoomAndPan="magnify" viewBox="0 0 375 374.999991" height="500" preserveAspectRatio="xMidYMid meet" version="1.2"><defs><clipPath id="b455e17f89"><path d="M 181 152 L 192 152 L 192 177.269531 L 181 177.269531 Z M 181 152 "/></clipPath><clipPath id="2cbe3cffb2"><path d="M 224 132.269531 L 233 132.269531 L 233 139 L 224 139 Z M 224 132.269531 "/></clipPath><clipPath id="095f78d16b"><path d="M 142 132.269531 L 151 132.269531 L 151 139 L 142 139 Z M 142 132.269531 "/></clipPath></defs><g id="78753b53d2"><g clip-rule="nonzero" clip-path="url(#b455e17f89)"><path style=" stroke:none;fill-rule:nonzero;fill:#000000;fill-opacity:1;" d="M 191.898438 177.027344 L 181.636719 177.027344 L 181.636719 152.613281 L 191.898438 152.613281 L 191.898438 177.027344 "/></g><path style=" stroke:none;fill-rule:nonzero;fill:#000000;fill-opacity:1;" d="M 238.988281 146.054688 C 238.988281 146.660156 238.496094 147.15625 237.890625 147.15625 C 237.890625 147.15625 221.386719 145.46875 218.144531 147.15625 C 214.890625 148.851562 205.65625 155.839844 201.453125 155.839844 C 197.253906 155.839844 177.417969 155.972656 171.816406 155.839844 C 166.21875 155.707031 159.195312 148.429688 155.367188 147.15625 C 151.542969 145.878906 135.675781 147.15625 135.675781 147.15625 C 135.0625 147.15625 134.574219 146.660156 134.574219 146.054688 L 134.574219 141.804688 C 134.574219 141.191406 135.0625 140.699219 135.675781 140.699219 C 135.675781 140.699219 149.886719 140.625 155.71875 140.699219 C 159.921875 140.652344 168.078125 149.015625 171.9375 149.382812 C 175.800781 149.75 198.304688 149.945312 201.570312 149.382812 C 204.835938 148.820312 214.640625 141.792969 217.90625 140.699219 C 221.171875 139.601562 237.890625 140.699219 237.890625 140.699219 C 238.496094 140.699219 238.988281 141.191406 238.988281 141.804688 L 238.988281 146.054688 "/><path style=" stroke:none;fill-rule:nonzero;fill:#000000;fill-opacity:1;" d="M 193.367188 147.707031 C 193.367188 147.101562 192.878906 146.605469 192.269531 146.605469 L 191.410156 146.605469 C 189.992188 147.289062 188.429688 147.65625 186.839844 147.65625 C 185.246094 147.65625 183.683594 147.289062 182.269531 146.605469 L 181.289062 146.605469 C 180.683594 146.605469 180.191406 147.101562 180.191406 147.707031 L 180.191406 149.234375 C 180.492188 150.230469 180.65625 151.269531 180.65625 152.320312 C 180.65625 153.375 180.492188 154.417969 180.191406 155.40625 L 180.191406 157.519531 C 180.191406 158.128906 180.683594 158.617188 181.289062 158.617188 L 182.785156 158.617188 C 184.0625 158.089844 185.4375 157.804688 186.839844 157.804688 C 188.238281 157.804688 189.617188 158.089844 190.886719 158.617188 L 192.269531 158.617188 C 192.878906 158.617188 193.367188 158.128906 193.367188 157.519531 L 193.367188 155.878906 C 192.988281 154.777344 192.792969 153.613281 192.792969 152.4375 C 192.792969 151.257812 192.988281 150.09375 193.367188 149 L 193.367188 147.707031 "/><path style=" stroke:none;fill-rule:nonzero;fill:#ffffff;fill-opacity:1;" d="M 183.402344 148.679688 C 183.402344 149.34375 182.863281 149.882812 182.199219 149.882812 C 181.53125 149.882812 180.992188 149.34375 180.992188 148.679688 C 180.992188 148.011719 181.53125 147.472656 182.199219 147.472656 C 182.863281 147.472656 183.402344 148.011719 183.402344 148.679688 "/><path style=" stroke:none;fill-rule:nonzero;fill:#000000;fill-opacity:1;" d="M 182.765625 148.679688 C 182.765625 148.988281 182.503906 149.238281 182.199219 149.238281 C 181.890625 149.238281 181.636719 148.988281 181.636719 148.679688 C 181.636719 148.367188 181.890625 148.113281 182.199219 148.113281 C 182.503906 148.113281 182.765625 148.367188 182.765625 148.679688 "/><path style=" stroke:none;fill-rule:nonzero;fill:#ffffff;fill-opacity:1;" d="M 192.542969 148.679688 C 192.542969 149.34375 192.003906 149.882812 191.339844 149.882812 C 190.671875 149.882812 190.132812 149.34375 190.132812 148.679688 C 190.132812 148.011719 190.671875 147.472656 191.339844 147.472656 C 192.003906 147.472656 192.542969 148.011719 192.542969 148.679688 "/><path style=" stroke:none;fill-rule:nonzero;fill:#000000;fill-opacity:1;" d="M 191.898438 148.679688 C 191.898438 148.988281 191.652344 149.238281 191.339844 149.238281 C 191.027344 149.238281 190.777344 148.988281 190.777344 148.679688 C 190.777344 148.367188 191.027344 148.113281 191.339844 148.113281 C 191.652344 148.113281 191.898438 148.367188 191.898438 148.679688 "/><path style=" stroke:none;fill-rule:nonzero;fill:#ffffff;fill-opacity:1;" d="M 183.402344 156.339844 C 183.402344 157.007812 182.863281 157.546875 182.199219 157.546875 C 181.53125 157.546875 180.992188 157.007812 180.992188 156.339844 C 180.992188 155.675781 181.53125 155.132812 182.199219 155.132812 C 182.863281 155.132812 183.402344 155.675781 183.402344 156.339844 "/><path style=" stroke:none;fill-rule:nonzero;fill:#000000;fill-opacity:1;" d="M 182.765625 156.339844 C 182.765625 156.648438 182.503906 156.902344 182.199219 156.902344 C 181.890625 156.902344 181.636719 156.648438 181.636719 156.339844 C 181.636719 156.027344 181.890625 155.773438 182.199219 155.773438 C 182.503906 155.773438 182.765625 156.027344 182.765625 156.339844 "/><path style=" stroke:none;fill-rule:nonzero;fill:#ffffff;fill-opacity:1;" d="M 192.542969 156.339844 C 192.542969 157.007812 192.003906 157.546875 191.339844 157.546875 C 190.671875 157.546875 190.132812 157.007812 190.132812 156.339844 C 190.132812 155.675781 190.671875 155.132812 191.339844 155.132812 C 192.003906 155.132812 192.542969 155.675781 192.542969 156.339844 "/><path style=" stroke:none;fill-rule:nonzero;fill:#000000;fill-opacity:1;" d="M 191.898438 156.339844 C 191.898438 156.648438 191.652344 156.902344 191.339844 156.902344 C 191.027344 156.902344 190.777344 156.648438 190.777344 156.339844 C 190.777344 156.027344 191.027344 155.773438 191.339844 155.773438 C 191.652344 155.773438 191.898438 156.027344 191.898438 156.339844 "/><path style=" stroke:none;fill-rule:nonzero;fill:#000000;fill-opacity:1;" d="M 261.859375 147.105469 C 261.859375 147.714844 261.367188 148.210938 260.753906 148.210938 L 233.769531 148.210938 C 233.160156 148.210938 232.664062 147.714844 232.664062 147.105469 L 232.664062 140.746094 C 232.664062 140.136719 233.160156 139.640625 233.769531 139.640625 L 260.753906 139.640625 C 261.367188 139.640625 261.859375 140.136719 261.859375 140.746094 L 261.859375 147.105469 "/><path style=" stroke:none;fill-rule:nonzero;fill:#000000;fill-opacity:1;" d="M 233.542969 148.238281 C 233.542969 148.722656 233.148438 149.113281 232.664062 149.113281 C 232.179688 149.113281 231.789062 148.722656 231.789062 148.238281 L 231.789062 139.613281 C 231.789062 139.136719 232.179688 138.738281 232.664062 138.738281 C 233.148438 138.738281 233.542969 139.136719 233.542969 139.613281 L 233.542969 148.238281 "/><path style=" stroke:none;fill-rule:nonzero;fill:#000000;fill-opacity:1;" d="M 113.085938 147.105469 C 113.085938 147.714844 113.582031 148.210938 114.1875 148.210938 L 141.175781 148.210938 C 141.785156 148.210938 142.28125 147.714844 142.28125 147.105469 L 142.28125 140.746094 C 142.28125 140.136719 141.785156 139.640625 141.175781 139.640625 L 114.1875 139.640625 C 113.582031 139.640625 113.085938 140.136719 113.085938 140.746094 L 113.085938 147.105469 "/><path style=" stroke:none;fill-rule:nonzero;fill:#000000;fill-opacity:1;" d="M 141.40625 148.238281 C 141.40625 148.722656 141.796875 149.113281 142.28125 149.113281 C 142.765625 149.113281 143.15625 148.722656 143.15625 148.238281 L 143.15625 139.613281 C 143.15625 139.136719 142.765625 138.738281 142.28125 138.738281 C 141.796875 138.738281 141.40625 139.136719 141.40625 139.613281 L 141.40625 148.238281 "/><path style=" stroke:none;fill-rule:nonzero;fill:#000000;fill-opacity:1;" d="M 228.246094 139.695312 C 228.246094 141.917969 226.449219 143.722656 224.226562 143.722656 C 222.003906 143.722656 220.199219 141.917969 220.199219 139.695312 C 220.199219 137.476562 222.003906 135.671875 224.226562 135.671875 C 226.449219 135.671875 228.246094 137.476562 228.246094 139.695312 "/><g clip-rule="nonzero" clip-path="url(#2cbe3cffb2)"><path style=" stroke:none;fill-rule:nonzero;fill:#000000;fill-opacity:1;" d="M 224.871094 138.738281 L 225.449219 134.503906 L 231.046875 132.289062 C 231.046875 132.289062 233.699219 132.640625 231.789062 134.273438 C 231.789062 134.273438 228.660156 135.53125 226.964844 135.671875 L 226.5 138.738281 L 224.871094 138.738281 "/></g><path style=" stroke:none;fill-rule:nonzero;fill:#000000;fill-opacity:1;" d="M 146.703125 139.695312 C 146.703125 141.917969 148.5 143.722656 150.730469 143.722656 C 152.953125 143.722656 154.75 141.917969 154.75 139.695312 C 154.75 137.476562 152.953125 135.671875 150.730469 135.671875 C 148.5 135.671875 146.703125 137.476562 146.703125 139.695312 "/><g clip-rule="nonzero" clip-path="url(#095f78d16b)"><path style=" stroke:none;fill-rule:nonzero;fill:#000000;fill-opacity:1;" d="M 150.085938 138.738281 L 149.503906 134.503906 L 143.902344 132.289062 C 143.902344 132.289062 141.253906 132.640625 143.160156 134.273438 C 143.160156 134.273438 146.289062 135.53125 147.984375 135.671875 L 148.453125 138.738281 L 150.085938 138.738281 "/></g><g style="fill:#000000;fill-opacity:1;"><g transform="translate(87.902636, 204.477907)"><path style="stroke:none" d="M 33.203125 -8.96875 C 33.640625 -8.1875 33.878906 -7.378906 33.921875 -6.546875 C 33.972656 -5.710938 33.847656 -4.90625 33.546875 -4.125 C 33.242188 -3.34375 32.789062 -2.65625 32.1875 -2.0625 C 31.59375 -1.46875 30.878906 -1.023438 30.046875 -0.734375 C 28.773438 -0.285156 27.453125 -0.0546875 26.078125 -0.046875 C 24.703125 -0.0351562 23.347656 -0.0195312 22.015625 0 C 20.503906 0.0195312 18.976562 0.03125 17.4375 0.03125 C 15.90625 0.03125 14.378906 0.0195312 12.859375 0 C 11.421875 0 9.941406 -0.0390625 8.421875 -0.125 C 6.898438 -0.207031 5.421875 -0.128906 3.984375 0.109375 C 3.847656 0.128906 3.695312 0.148438 3.53125 0.171875 C 3.375 0.191406 3.222656 0.179688 3.078125 0.140625 C 2.828125 0.046875 2.664062 -0.160156 2.59375 -0.484375 C 2.53125 -0.804688 2.519531 -1.179688 2.5625 -1.609375 C 2.613281 -2.035156 2.671875 -2.4375 2.734375 -2.8125 C 2.804688 -3.195312 2.84375 -3.492188 2.84375 -3.703125 C 2.863281 -4.535156 2.875 -5.378906 2.875 -6.234375 C 2.875 -7.085938 2.875 -7.929688 2.875 -8.765625 C 2.851562 -10.390625 2.835938 -12.015625 2.828125 -13.640625 C 2.816406 -15.265625 2.8125 -16.882812 2.8125 -18.5 C 2.8125 -18.5 2.78125 -18.597656 2.71875 -18.796875 C 2.664062 -18.992188 2.644531 -19.210938 2.65625 -19.453125 C 2.664062 -19.703125 2.773438 -19.882812 2.984375 -20 C 3.140625 -20.09375 3.390625 -20.132812 3.734375 -20.125 C 4.085938 -20.113281 4.445312 -20.082031 4.8125 -20.03125 C 5.1875 -19.988281 5.476562 -19.96875 5.6875 -19.96875 C 6.164062 -19.96875 6.546875 -19.960938 6.828125 -19.953125 C 7.109375 -19.953125 7.316406 -19.953125 7.453125 -19.953125 L 8.53125 -19.953125 C 8.894531 -19.953125 9.132812 -19.953125 9.25 -19.953125 C 9.363281 -19.953125 9.597656 -19.953125 9.953125 -19.953125 C 10.316406 -19.953125 10.5625 -19.941406 10.6875 -19.921875 C 10.8125 -19.898438 11.050781 -19.890625 11.40625 -19.890625 C 15.445312 -19.890625 19.5 -19.914062 23.5625 -19.96875 C 24.695312 -19.988281 25.859375 -19.867188 27.046875 -19.609375 C 28.234375 -19.359375 29.257812 -18.84375 30.125 -18.0625 C 30.320312 -17.894531 30.5 -17.71875 30.65625 -17.53125 C 30.820312 -17.351562 30.96875 -17.148438 31.09375 -16.921875 C 31.476562 -16.265625 31.71875 -15.535156 31.8125 -14.734375 C 31.90625 -13.941406 31.847656 -13.175781 31.640625 -12.4375 C 31.566406 -12.144531 31.472656 -11.875 31.359375 -11.625 C 31.242188 -11.382812 31.109375 -11.160156 30.953125 -10.953125 C 31.941406 -10.492188 32.691406 -9.832031 33.203125 -8.96875 Z M 8.1875 -16.140625 C 8.09375 -15.960938 8.007812 -15.632812 7.9375 -15.15625 C 7.863281 -14.6875 7.820312 -14.179688 7.8125 -13.640625 C 7.800781 -13.097656 7.847656 -12.625 7.953125 -12.21875 C 8.054688 -11.8125 8.238281 -11.597656 8.5 -11.578125 C 8.769531 -11.554688 9.0625 -11.597656 9.375 -11.703125 C 9.6875 -11.804688 9.984375 -11.867188 10.265625 -11.890625 C 10.578125 -11.910156 10.878906 -11.914062 11.171875 -11.90625 C 11.460938 -11.894531 11.757812 -11.878906 12.0625 -11.859375 C 13.8125 -11.785156 15.5625 -11.757812 17.3125 -11.78125 C 19.070312 -11.800781 20.820312 -11.820312 22.5625 -11.84375 C 23.113281 -11.851562 23.703125 -11.878906 24.328125 -11.921875 C 24.953125 -11.960938 25.472656 -12.203125 25.890625 -12.640625 C 26.273438 -13.035156 26.46875 -13.492188 26.46875 -14.015625 C 26.476562 -14.535156 26.296875 -14.992188 25.921875 -15.390625 C 25.554688 -15.753906 25.117188 -15.992188 24.609375 -16.109375 C 24.359375 -16.140625 24.101562 -16.148438 23.84375 -16.140625 C 23.59375 -16.140625 23.335938 -16.140625 23.078125 -16.140625 C 23.015625 -16.140625 22.851562 -16.140625 22.59375 -16.140625 C 22.34375 -16.148438 22.007812 -16.15625 21.59375 -16.15625 C 20.601562 -16.15625 19.601562 -16.171875 18.59375 -16.203125 C 17.59375 -16.234375 16.59375 -16.25 15.59375 -16.25 C 15.34375 -16.25 15.09375 -16.242188 14.84375 -16.234375 C 14.601562 -16.222656 14.359375 -16.21875 14.109375 -16.21875 C 13.234375 -16.21875 12.363281 -16.207031 11.5 -16.1875 C 10.644531 -16.164062 9.769531 -16.203125 8.875 -16.296875 C 8.800781 -16.296875 8.71875 -16.300781 8.625 -16.3125 C 8.53125 -16.320312 8.4375 -16.3125 8.34375 -16.28125 C 8.320312 -16.257812 8.300781 -16.238281 8.28125 -16.21875 C 8.257812 -16.195312 8.226562 -16.171875 8.1875 -16.140625 Z M 27.9375 -4.78125 C 28.488281 -5.5625 28.695312 -6.171875 28.5625 -6.609375 C 28.4375 -7.054688 28.085938 -7.390625 27.515625 -7.609375 C 26.941406 -7.828125 26.257812 -7.96875 25.46875 -8.03125 C 24.6875 -8.101562 23.925781 -8.140625 23.1875 -8.140625 C 21.007812 -8.078125 18.816406 -8.046875 16.609375 -8.046875 C 15.441406 -8.046875 14.265625 -8.054688 13.078125 -8.078125 C 11.890625 -8.097656 10.707031 -8.109375 9.53125 -8.109375 C 9.34375 -8.109375 9.148438 -8.132812 8.953125 -8.1875 C 8.765625 -8.25 8.585938 -8.273438 8.421875 -8.265625 C 8.253906 -8.253906 8.09375 -8.144531 7.9375 -7.9375 C 7.769531 -7.6875 7.734375 -7.398438 7.828125 -7.078125 C 7.921875 -6.753906 7.992188 -6.472656 8.046875 -6.234375 C 8.109375 -6.046875 8.109375 -5.773438 8.046875 -5.421875 C 7.992188 -5.066406 7.957031 -4.726562 7.9375 -4.40625 C 7.914062 -4.082031 7.972656 -3.835938 8.109375 -3.671875 C 8.242188 -3.503906 8.53125 -3.492188 8.96875 -3.640625 C 9.507812 -3.828125 10.101562 -3.921875 10.75 -3.921875 C 11.394531 -3.921875 12.046875 -3.890625 12.703125 -3.828125 C 13.359375 -3.773438 13.960938 -3.742188 14.515625 -3.734375 L 20.890625 -3.734375 C 21.242188 -3.734375 21.476562 -3.734375 21.59375 -3.734375 C 21.707031 -3.742188 21.945312 -3.75 22.3125 -3.75 L 22.28125 -3.703125 C 22.90625 -3.703125 23.554688 -3.695312 24.234375 -3.6875 C 24.921875 -3.675781 25.585938 -3.738281 26.234375 -3.875 C 26.878906 -4.019531 27.445312 -4.320312 27.9375 -4.78125 Z M 27.9375 -4.78125 "/></g></g><g style="fill:#000000;fill-opacity:1;"><g transform="translate(123.233762, 204.477907)"><path style="stroke:none" d="M 31.21875 -13.828125 C 31.007812 -13.785156 30.75 -13.875 30.4375 -14.09375 C 30.125 -14.3125 29.816406 -14.550781 29.515625 -14.8125 C 29.222656 -15.082031 29 -15.257812 28.84375 -15.34375 C 28.1875 -15.695312 27.484375 -15.992188 26.734375 -16.234375 C 25.984375 -16.484375 25.226562 -16.6875 24.46875 -16.84375 C 23.425781 -17.050781 22.285156 -17.195312 21.046875 -17.28125 C 19.816406 -17.363281 18.566406 -17.351562 17.296875 -17.25 C 16.023438 -17.144531 14.785156 -16.921875 13.578125 -16.578125 C 12.378906 -16.242188 11.273438 -15.765625 10.265625 -15.140625 C 9.265625 -14.515625 8.410156 -13.707031 7.703125 -12.71875 C 7.078125 -11.84375 6.769531 -10.921875 6.78125 -9.953125 C 6.789062 -8.984375 7.109375 -8.066406 7.734375 -7.203125 C 8.535156 -6.078125 9.539062 -5.191406 10.75 -4.546875 C 11.96875 -3.898438 13.269531 -3.429688 14.65625 -3.140625 C 16.039062 -2.847656 17.378906 -2.664062 18.671875 -2.59375 C 20.410156 -2.5 22.148438 -2.601562 23.890625 -2.90625 C 25.640625 -3.207031 27.289062 -3.765625 28.84375 -4.578125 C 29.09375 -4.691406 29.320312 -4.820312 29.53125 -4.96875 C 29.738281 -5.125 29.9375 -5.269531 30.125 -5.40625 C 30.332031 -5.5625 30.539062 -5.726562 30.75 -5.90625 C 30.96875 -6.082031 31.1875 -6.203125 31.40625 -6.265625 C 31.539062 -5.578125 31.570312 -4.84375 31.5 -4.0625 C 31.4375 -3.289062 31.390625 -2.550781 31.359375 -1.84375 C 31.359375 -1.675781 31.316406 -1.546875 31.234375 -1.453125 C 31.109375 -1.222656 30.84375 -1.03125 30.4375 -0.875 C 30.039062 -0.726562 29.628906 -0.609375 29.203125 -0.515625 C 28.773438 -0.421875 28.441406 -0.332031 28.203125 -0.25 C 27.554688 -0.0625 26.90625 0.109375 26.25 0.265625 C 25.59375 0.429688 24.929688 0.5625 24.265625 0.65625 C 24.023438 0.675781 23.78125 0.6875 23.53125 0.6875 C 23.28125 0.6875 23.035156 0.703125 22.796875 0.734375 C 21.316406 0.867188 19.847656 0.898438 18.390625 0.828125 C 16.941406 0.765625 15.488281 0.59375 14.03125 0.3125 C 13.78125 0.269531 13.535156 0.222656 13.296875 0.171875 C 13.066406 0.128906 12.828125 0.0820312 12.578125 0.03125 C 12.328125 -0.03125 12.085938 -0.09375 11.859375 -0.15625 C 11.640625 -0.21875 11.414062 -0.289062 11.1875 -0.375 C 9.96875 -0.75 8.753906 -1.222656 7.546875 -1.796875 C 6.347656 -2.378906 5.265625 -3.101562 4.296875 -3.96875 C 3.328125 -4.832031 2.566406 -5.878906 2.015625 -7.109375 C 1.921875 -7.335938 1.828125 -7.566406 1.734375 -7.796875 C 1.640625 -8.023438 1.566406 -8.253906 1.515625 -8.484375 C 1.296875 -9.453125 1.316406 -10.425781 1.578125 -11.40625 C 1.835938 -12.394531 2.234375 -13.28125 2.765625 -14.0625 C 2.910156 -14.25 3.054688 -14.4375 3.203125 -14.625 C 3.347656 -14.8125 3.503906 -15 3.671875 -15.1875 C 4.160156 -15.707031 4.695312 -16.203125 5.28125 -16.671875 C 5.875 -17.148438 6.484375 -17.554688 7.109375 -17.890625 C 8.796875 -18.835938 10.613281 -19.523438 12.5625 -19.953125 C 14.519531 -20.378906 16.457031 -20.632812 18.375 -20.71875 C 18.625 -20.738281 18.867188 -20.753906 19.109375 -20.765625 C 19.347656 -20.785156 19.585938 -20.796875 19.828125 -20.796875 C 20.097656 -20.796875 20.347656 -20.78125 20.578125 -20.75 C 20.816406 -20.726562 21.0625 -20.707031 21.3125 -20.6875 C 21.570312 -20.664062 21.820312 -20.660156 22.0625 -20.671875 C 22.300781 -20.679688 22.546875 -20.664062 22.796875 -20.625 C 23.535156 -20.570312 24.265625 -20.476562 24.984375 -20.34375 C 25.703125 -20.207031 26.421875 -20.054688 27.140625 -19.890625 C 27.390625 -19.816406 27.628906 -19.757812 27.859375 -19.71875 C 28.097656 -19.675781 28.332031 -19.617188 28.5625 -19.546875 C 28.8125 -19.472656 29.050781 -19.40625 29.28125 -19.34375 C 29.519531 -19.289062 29.753906 -19.21875 29.984375 -19.125 C 30.160156 -19.0625 30.40625 -18.984375 30.71875 -18.890625 C 31.03125 -18.796875 31.234375 -18.65625 31.328125 -18.46875 C 31.398438 -18.289062 31.4375 -18.070312 31.4375 -17.8125 C 31.457031 -17.300781 31.476562 -16.789062 31.5 -16.28125 C 31.519531 -15.78125 31.535156 -15.273438 31.546875 -14.765625 C 31.566406 -14.460938 31.546875 -14.238281 31.484375 -14.09375 C 31.421875 -13.957031 31.332031 -13.867188 31.21875 -13.828125 Z M 31.21875 -13.828125 "/></g></g><g style="fill:#000000;fill-opacity:1;"><g transform="translate(156.004663, 204.477907)"><path style="stroke:none" d="M 25.0625 -19.796875 C 25.257812 -19.898438 25.460938 -19.953125 25.671875 -19.953125 C 25.878906 -19.960938 26.078125 -19.96875 26.265625 -19.96875 C 26.847656 -19.988281 27.421875 -20 27.984375 -20 C 28.554688 -20 29.128906 -20.007812 29.703125 -20.03125 C 29.796875 -20.03125 29.894531 -20.019531 30 -20 C 30.101562 -19.976562 30.175781 -19.921875 30.21875 -19.828125 C 30.269531 -19.734375 30.253906 -19.632812 30.171875 -19.53125 C 30.085938 -19.425781 30 -19.335938 29.90625 -19.265625 C 29.46875 -18.921875 29.050781 -18.550781 28.65625 -18.15625 C 28.257812 -17.757812 27.867188 -17.347656 27.484375 -16.921875 L 19.375 -8.046875 C 18.769531 -7.390625 18.476562 -6.601562 18.5 -5.6875 C 18.507812 -4.875 18.523438 -4.054688 18.546875 -3.234375 C 18.566406 -2.421875 18.585938 -1.609375 18.609375 -0.796875 C 18.609375 -0.660156 18.59375 -0.507812 18.5625 -0.34375 C 18.53125 -0.1875 18.441406 -0.0820312 18.296875 -0.03125 C 18.253906 -0.0078125 18.203125 0.00390625 18.140625 0.015625 C 18.085938 0.0234375 18.046875 0.03125 18.015625 0.03125 C 17.285156 0.03125 16.554688 0.03125 15.828125 0.03125 C 15.097656 0.03125 14.375 0.0390625 13.65625 0.0625 C 13.5625 0.0625 13.492188 0.0507812 13.453125 0.03125 C 13.328125 -0.0078125 13.242188 -0.109375 13.203125 -0.265625 C 13.160156 -0.429688 13.140625 -0.582031 13.140625 -0.71875 C 13.160156 -1.625 13.179688 -2.53125 13.203125 -3.4375 C 13.222656 -4.351562 13.242188 -5.265625 13.265625 -6.171875 C 13.296875 -6.628906 13.179688 -7.035156 12.921875 -7.390625 C 12.710938 -7.660156 12.476562 -7.925781 12.21875 -8.1875 C 11.96875 -8.457031 11.726562 -8.71875 11.5 -8.96875 C 11.226562 -9.25 10.957031 -9.535156 10.6875 -9.828125 C 10.425781 -10.117188 10.164062 -10.410156 9.90625 -10.703125 C 9.375 -11.265625 8.847656 -11.835938 8.328125 -12.421875 C 7.804688 -13.015625 7.269531 -13.585938 6.71875 -14.140625 C 6.300781 -14.617188 5.867188 -15.078125 5.421875 -15.515625 C 4.972656 -15.960938 4.53125 -16.414062 4.09375 -16.875 C 3.71875 -17.3125 3.351562 -17.75 3 -18.1875 C 2.644531 -18.632812 2.222656 -19.007812 1.734375 -19.3125 C 1.597656 -19.394531 1.476562 -19.503906 1.375 -19.640625 C 1.269531 -19.785156 1.273438 -19.914062 1.390625 -20.03125 C 1.453125 -20.082031 1.523438 -20.109375 1.609375 -20.109375 C 1.691406 -20.109375 1.769531 -20.101562 1.84375 -20.09375 C 2.925781 -19.863281 4.019531 -19.804688 5.125 -19.921875 C 5.3125 -19.941406 5.492188 -19.953125 5.671875 -19.953125 C 5.859375 -19.960938 6.046875 -19.953125 6.234375 -19.921875 C 6.535156 -19.835938 6.800781 -19.695312 7.03125 -19.5 C 7.269531 -19.300781 7.488281 -19.085938 7.6875 -18.859375 C 8.957031 -17.460938 10.21875 -16.066406 11.46875 -14.671875 C 12.71875 -13.273438 13.976562 -11.875 15.25 -10.46875 C 15.613281 -10.050781 15.984375 -10.039062 16.359375 -10.4375 C 17.703125 -11.90625 19.035156 -13.367188 20.359375 -14.828125 C 21.691406 -16.285156 23.023438 -17.734375 24.359375 -19.171875 C 24.546875 -19.421875 24.753906 -19.613281 24.984375 -19.75 C 25.003906 -19.75 25.03125 -19.765625 25.0625 -19.796875 Z M 25.0625 -19.796875 "/></g></g><g style="fill:#000000;fill-opacity:1;"><g transform="translate(187.751475, 204.477907)"><path style="stroke:none" d="M 31.21875 -13.828125 C 31.007812 -13.785156 30.75 -13.875 30.4375 -14.09375 C 30.125 -14.3125 29.816406 -14.550781 29.515625 -14.8125 C 29.222656 -15.082031 29 -15.257812 28.84375 -15.34375 C 28.1875 -15.695312 27.484375 -15.992188 26.734375 -16.234375 C 25.984375 -16.484375 25.226562 -16.6875 24.46875 -16.84375 C 23.425781 -17.050781 22.285156 -17.195312 21.046875 -17.28125 C 19.816406 -17.363281 18.566406 -17.351562 17.296875 -17.25 C 16.023438 -17.144531 14.785156 -16.921875 13.578125 -16.578125 C 12.378906 -16.242188 11.273438 -15.765625 10.265625 -15.140625 C 9.265625 -14.515625 8.410156 -13.707031 7.703125 -12.71875 C 7.078125 -11.84375 6.769531 -10.921875 6.78125 -9.953125 C 6.789062 -8.984375 7.109375 -8.066406 7.734375 -7.203125 C 8.535156 -6.078125 9.539062 -5.191406 10.75 -4.546875 C 11.96875 -3.898438 13.269531 -3.429688 14.65625 -3.140625 C 16.039062 -2.847656 17.378906 -2.664062 18.671875 -2.59375 C 20.410156 -2.5 22.148438 -2.601562 23.890625 -2.90625 C 25.640625 -3.207031 27.289062 -3.765625 28.84375 -4.578125 C 29.09375 -4.691406 29.320312 -4.820312 29.53125 -4.96875 C 29.738281 -5.125 29.9375 -5.269531 30.125 -5.40625 C 30.332031 -5.5625 30.539062 -5.726562 30.75 -5.90625 C 30.96875 -6.082031 31.1875 -6.203125 31.40625 -6.265625 C 31.539062 -5.578125 31.570312 -4.84375 31.5 -4.0625 C 31.4375 -3.289062 31.390625 -2.550781 31.359375 -1.84375 C 31.359375 -1.675781 31.316406 -1.546875 31.234375 -1.453125 C 31.109375 -1.222656 30.84375 -1.03125 30.4375 -0.875 C 30.039062 -0.726562 29.628906 -0.609375 29.203125 -0.515625 C 28.773438 -0.421875 28.441406 -0.332031 28.203125 -0.25 C 27.554688 -0.0625 26.90625 0.109375 26.25 0.265625 C 25.59375 0.429688 24.929688 0.5625 24.265625 0.65625 C 24.023438 0.675781 23.78125 0.6875 23.53125 0.6875 C 23.28125 0.6875 23.035156 0.703125 22.796875 0.734375 C 21.316406 0.867188 19.847656 0.898438 18.390625 0.828125 C 16.941406 0.765625 15.488281 0.59375 14.03125 0.3125 C 13.78125 0.269531 13.535156 0.222656 13.296875 0.171875 C 13.066406 0.128906 12.828125 0.0820312 12.578125 0.03125 C 12.328125 -0.03125 12.085938 -0.09375 11.859375 -0.15625 C 11.640625 -0.21875 11.414062 -0.289062 11.1875 -0.375 C 9.96875 -0.75 8.753906 -1.222656 7.546875 -1.796875 C 6.347656 -2.378906 5.265625 -3.101562 4.296875 -3.96875 C 3.328125 -4.832031 2.566406 -5.878906 2.015625 -7.109375 C 1.921875 -7.335938 1.828125 -7.566406 1.734375 -7.796875 C 1.640625 -8.023438 1.566406 -8.253906 1.515625 -8.484375 C 1.296875 -9.453125 1.316406 -10.425781 1.578125 -11.40625 C 1.835938 -12.394531 2.234375 -13.28125 2.765625 -14.0625 C 2.910156 -14.25 3.054688 -14.4375 3.203125 -14.625 C 3.347656 -14.8125 3.503906 -15 3.671875 -15.1875 C 4.160156 -15.707031 4.695312 -16.203125 5.28125 -16.671875 C 5.875 -17.148438 6.484375 -17.554688 7.109375 -17.890625 C 8.796875 -18.835938 10.613281 -19.523438 12.5625 -19.953125 C 14.519531 -20.378906 16.457031 -20.632812 18.375 -20.71875 C 18.625 -20.738281 18.867188 -20.753906 19.109375 -20.765625 C 19.347656 -20.785156 19.585938 -20.796875 19.828125 -20.796875 C 20.097656 -20.796875 20.347656 -20.78125 20.578125 -20.75 C 20.816406 -20.726562 21.0625 -20.707031 21.3125 -20.6875 C 21.570312 -20.664062 21.820312 -20.660156 22.0625 -20.671875 C 22.300781 -20.679688 22.546875 -20.664062 22.796875 -20.625 C 23.535156 -20.570312 24.265625 -20.476562 24.984375 -20.34375 C 25.703125 -20.207031 26.421875 -20.054688 27.140625 -19.890625 C 27.390625 -19.816406 27.628906 -19.757812 27.859375 -19.71875 C 28.097656 -19.675781 28.332031 -19.617188 28.5625 -19.546875 C 28.8125 -19.472656 29.050781 -19.40625 29.28125 -19.34375 C 29.519531 -19.289062 29.753906 -19.21875 29.984375 -19.125 C 30.160156 -19.0625 30.40625 -18.984375 30.71875 -18.890625 C 31.03125 -18.796875 31.234375 -18.65625 31.328125 -18.46875 C 31.398438 -18.289062 31.4375 -18.070312 31.4375 -17.8125 C 31.457031 -17.300781 31.476562 -16.789062 31.5 -16.28125 C 31.519531 -15.78125 31.535156 -15.273438 31.546875 -14.765625 C 31.566406 -14.460938 31.546875 -14.238281 31.484375 -14.09375 C 31.421875 -13.957031 31.332031 -13.867188 31.21875 -13.828125 Z M 31.21875 -13.828125 "/></g></g><g style="fill:#000000;fill-opacity:1;"><g transform="translate(220.522376, 204.477907)"><path style="stroke:none" d="M 2.78125 0 C 2.988281 0.164062 3.21875 0.25 3.46875 0.25 C 3.75 0.25 4.019531 0.191406 4.28125 0.078125 C 4.550781 -0.0234375 4.832031 -0.0703125 5.125 -0.0625 C 5.894531 -0.0390625 6.675781 -0.0195312 7.46875 0 C 8.269531 0.0195312 9.0625 0.0195312 9.84375 0 C 12.175781 0 14.515625 0.0078125 16.859375 0.03125 C 19.203125 0.0625 21.539062 0.0507812 23.875 0 C 24.820312 -0.0390625 25.769531 -0.0625 26.71875 -0.0625 C 27.664062 -0.0703125 28.613281 -0.00390625 29.5625 0.140625 C 29.769531 0.160156 29.992188 0.140625 30.234375 0.078125 C 30.472656 0.0234375 30.582031 -0.140625 30.5625 -0.421875 C 30.5625 -0.515625 30.550781 -0.609375 30.53125 -0.703125 C 30.507812 -0.804688 30.476562 -0.894531 30.4375 -0.96875 C 30.363281 -1.332031 30.351562 -1.675781 30.40625 -2 C 30.46875 -2.332031 30.53125 -2.679688 30.59375 -3.046875 C 30.625 -3.234375 30.632812 -3.46875 30.625 -3.75 C 30.613281 -4.039062 30.476562 -4.222656 30.21875 -4.296875 C 30.007812 -4.347656 29.789062 -4.328125 29.5625 -4.234375 C 29.332031 -4.140625 29.101562 -4.09375 28.875 -4.09375 C 28.519531 -4.09375 28.28125 -4.113281 28.15625 -4.15625 C 28.03125 -4.195312 27.78125 -4.21875 27.40625 -4.21875 C 27.019531 -4.21875 26.632812 -4.210938 26.25 -4.203125 C 25.863281 -4.191406 25.476562 -4.1875 25.09375 -4.1875 C 23.914062 -4.164062 22.734375 -4.15625 21.546875 -4.15625 C 20.367188 -4.15625 19.191406 -4.15625 18.015625 -4.15625 C 16.867188 -4.15625 15.726562 -4.144531 14.59375 -4.125 C 13.457031 -4.101562 12.320312 -4.113281 11.1875 -4.15625 C 10.894531 -4.15625 10.601562 -4.164062 10.3125 -4.1875 C 10.019531 -4.21875 9.734375 -4.207031 9.453125 -4.15625 C 9.253906 -4.113281 9.023438 -4.050781 8.765625 -3.96875 C 8.515625 -3.882812 8.296875 -3.925781 8.109375 -4.09375 C 8.015625 -4.1875 7.957031 -4.300781 7.9375 -4.4375 C 7.914062 -4.570312 7.914062 -4.707031 7.9375 -4.84375 C 7.976562 -5.289062 8.015625 -5.738281 8.046875 -6.1875 C 8.085938 -6.632812 8.109375 -7.085938 8.109375 -7.546875 C 8.109375 -8.035156 8.109375 -8.53125 8.109375 -9.03125 C 8.109375 -9.53125 8.097656 -10.019531 8.078125 -10.5 C 8.054688 -11.445312 8.039062 -12.40625 8.03125 -13.375 C 8.03125 -14.34375 8.035156 -15.289062 8.046875 -16.21875 C 8.046875 -16.707031 8.054688 -17.1875 8.078125 -17.65625 C 8.097656 -18.125 8.144531 -18.59375 8.21875 -19.0625 C 8.238281 -19.15625 8.253906 -19.253906 8.265625 -19.359375 C 8.273438 -19.460938 8.269531 -19.5625 8.25 -19.65625 C 8.195312 -19.851562 8.082031 -19.976562 7.90625 -20.03125 C 7.738281 -20.082031 7.566406 -20.09375 7.390625 -20.0625 C 7.222656 -20.019531 7.050781 -19.984375 6.875 -19.953125 C 6.707031 -19.929688 6.539062 -19.921875 6.375 -19.921875 C 5.957031 -19.898438 5.546875 -19.898438 5.140625 -19.921875 C 4.734375 -19.941406 4.316406 -19.976562 3.890625 -20.03125 C 3.679688 -20.070312 3.441406 -20.09375 3.171875 -20.09375 C 2.910156 -20.101562 2.734375 -19.976562 2.640625 -19.71875 C 2.546875 -19.414062 2.546875 -19.085938 2.640625 -18.734375 C 2.734375 -18.378906 2.789062 -18.050781 2.8125 -17.75 C 2.851562 -17.375 2.875 -16.988281 2.875 -16.59375 C 2.875 -16.207031 2.875 -15.828125 2.875 -15.453125 C 2.875 -14.710938 2.863281 -13.972656 2.84375 -13.234375 C 2.820312 -12.492188 2.8125 -11.742188 2.8125 -10.984375 C 2.8125 -9.640625 2.8125 -8.289062 2.8125 -6.9375 C 2.8125 -5.59375 2.800781 -4.25 2.78125 -2.90625 C 2.78125 -2.582031 2.785156 -2.253906 2.796875 -1.921875 C 2.804688 -1.585938 2.765625 -1.257812 2.671875 -0.9375 C 2.640625 -0.75 2.617188 -0.578125 2.609375 -0.421875 C 2.597656 -0.273438 2.65625 -0.132812 2.78125 0 Z M 2.78125 0 "/></g></g><g style="fill:#000000;fill-opacity:1;"><g transform="translate(252.354525, 204.477907)"><path style="stroke:none" d="M 2.84375 0 L 2.90625 0.0625 C 3.050781 0.1875 3.226562 0.222656 3.4375 0.171875 C 3.644531 0.128906 3.847656 0.09375 4.046875 0.0625 C 4.253906 0 4.460938 -0.0351562 4.671875 -0.046875 C 4.878906 -0.0546875 5.078125 -0.0507812 5.265625 -0.03125 C 9.222656 0.0390625 13.179688 0.0507812 17.140625 0 C 21.097656 -0.0390625 25.050781 -0.0625 29 -0.0625 C 29.375 -0.0625 29.617188 -0.0546875 29.734375 -0.046875 C 29.847656 -0.0351562 30.082031 -0.03125 30.4375 -0.03125 C 30.65625 -0.03125 30.859375 0.00390625 31.046875 0.078125 C 31.234375 0.160156 31.414062 0.195312 31.59375 0.1875 C 31.78125 0.175781 31.9375 0.046875 32.0625 -0.203125 C 32.195312 -0.410156 32.25 -0.660156 32.21875 -0.953125 C 32.195312 -1.242188 32.15625 -1.535156 32.09375 -1.828125 C 32.039062 -2.128906 32.015625 -2.394531 32.015625 -2.625 C 32.015625 -2.976562 32.019531 -3.269531 32.03125 -3.5 C 32.050781 -3.726562 31.988281 -3.90625 31.84375 -4.03125 C 31.707031 -4.15625 31.394531 -4.21875 30.90625 -4.21875 C 27.238281 -4.195312 23.566406 -4.175781 19.890625 -4.15625 C 16.222656 -4.132812 12.550781 -4.113281 8.875 -4.09375 C 8.40625 -4.09375 8.140625 -4.25 8.078125 -4.5625 C 8.023438 -4.875 7.976562 -5.210938 7.9375 -5.578125 C 7.894531 -5.898438 7.851562 -6.265625 7.8125 -6.671875 C 7.78125 -7.078125 7.851562 -7.429688 8.03125 -7.734375 C 8.132812 -7.929688 8.304688 -8.03125 8.546875 -8.03125 C 8.785156 -8.039062 9.007812 -8.019531 9.21875 -7.96875 C 9.539062 -7.875 9.851562 -7.820312 10.15625 -7.8125 C 10.457031 -7.800781 10.78125 -7.796875 11.125 -7.796875 C 14.46875 -7.796875 17.820312 -7.796875 21.1875 -7.796875 C 24.550781 -7.796875 27.910156 -7.804688 31.265625 -7.828125 C 31.347656 -7.828125 31.425781 -7.832031 31.5 -7.84375 C 31.570312 -7.851562 31.640625 -7.882812 31.703125 -7.9375 C 31.773438 -8.007812 31.8125 -8.132812 31.8125 -8.3125 L 32.0625 -10.671875 C 32.125 -11.128906 32 -11.445312 31.6875 -11.625 C 31.382812 -11.800781 30.992188 -11.894531 30.515625 -11.90625 C 30.046875 -11.914062 29.578125 -11.894531 29.109375 -11.84375 C 28.648438 -11.800781 28.289062 -11.78125 28.03125 -11.78125 C 27.09375 -11.757812 26.15625 -11.75 25.21875 -11.75 C 24.28125 -11.75 23.335938 -11.738281 22.390625 -11.71875 C 20.515625 -11.71875 18.632812 -11.710938 16.75 -11.703125 C 14.875 -11.691406 13 -11.6875 11.125 -11.6875 C 10.757812 -11.6875 10.316406 -11.648438 9.796875 -11.578125 C 9.273438 -11.503906 8.851562 -11.503906 8.53125 -11.578125 C 8.320312 -11.617188 8.164062 -11.75 8.0625 -11.96875 C 7.957031 -12.1875 7.914062 -12.398438 7.9375 -12.609375 C 7.9375 -12.941406 7.925781 -13.289062 7.90625 -13.65625 C 7.882812 -14.03125 7.894531 -14.378906 7.9375 -14.703125 C 7.976562 -15.023438 8.09375 -15.289062 8.28125 -15.5 C 8.46875 -15.707031 8.78125 -15.8125 9.21875 -15.8125 C 11.226562 -15.800781 13.238281 -15.796875 15.25 -15.796875 C 17.257812 -15.796875 19.269531 -15.785156 21.28125 -15.765625 C 22.289062 -15.742188 23.304688 -15.734375 24.328125 -15.734375 C 25.347656 -15.734375 26.363281 -15.722656 27.375 -15.703125 C 27.8125 -15.703125 28.238281 -15.707031 28.65625 -15.71875 C 29.070312 -15.726562 29.488281 -15.710938 29.90625 -15.671875 C 30.207031 -15.660156 30.535156 -15.640625 30.890625 -15.609375 C 31.253906 -15.578125 31.5625 -15.664062 31.8125 -15.875 C 31.957031 -15.988281 32.039062 -16.132812 32.0625 -16.3125 C 32.082031 -16.5 32.09375 -16.675781 32.09375 -16.84375 L 32.015625 -18.859375 C 32.015625 -18.992188 32.003906 -19.125 31.984375 -19.25 C 31.960938 -19.375 31.914062 -19.484375 31.84375 -19.578125 C 31.726562 -19.722656 31.578125 -19.8125 31.390625 -19.84375 C 31.210938 -19.875 31.03125 -19.890625 30.84375 -19.890625 L 3.609375 -19.96875 C 3.253906 -19.96875 3.007812 -19.816406 2.875 -19.515625 C 2.738281 -19.210938 2.671875 -18.835938 2.671875 -18.390625 C 2.671875 -17.941406 2.695312 -17.503906 2.75 -17.078125 C 2.8125 -16.660156 2.84375 -16.316406 2.84375 -16.046875 C 2.863281 -14.828125 2.875 -13.613281 2.875 -12.40625 C 2.875 -11.207031 2.875 -10.003906 2.875 -8.796875 C 2.875 -7.941406 2.875 -7.09375 2.875 -6.25 C 2.875 -5.40625 2.863281 -4.566406 2.84375 -3.734375 C 2.84375 -3.179688 2.800781 -2.632812 2.71875 -2.09375 C 2.632812 -1.550781 2.628906 -1.003906 2.703125 -0.453125 C 2.722656 -0.378906 2.738281 -0.300781 2.75 -0.21875 C 2.769531 -0.144531 2.800781 -0.0703125 2.84375 0 Z M 2.84375 0 "/></g></g></g></svg>